<mxfile host="app.diagrams.net" modified="2021-01-29T15:27:03.584Z" agent="5.0 (Macintosh; Intel Mac OS X 10_15_7) AppleWebKit/537.36 (KHTML, like Gecko) Chrome/88.0.4324.96 Safari/537.36" etag="uQAsAXmMBoLV2DGDhX45" version="14.2.7" type="github">
  <diagram id="Td9-mndeDh_23hXxGDzK" name="Page-1">
    <mxGraphModel dx="1157" dy="573" grid="1" gridSize="10" guides="1" tooltips="1" connect="1" arrows="1" fold="1" page="1" pageScale="1" pageWidth="850" pageHeight="1100" math="0" shadow="0">
      <root>
        <mxCell id="0" />
        <mxCell id="1" parent="0" />
        <mxCell id="AzFJETMl0v4Ij8P8jwY9-1" value="" style="verticalLabelPosition=bottom;html=1;verticalAlign=top;align=center;strokeColor=none;fillColor=#00BEF2;shape=mxgraph.azure.cloud_services_configuration_file;pointerEvents=1;" vertex="1" parent="1">
          <mxGeometry x="100" y="210" width="47.5" height="50" as="geometry" />
        </mxCell>
        <mxCell id="AzFJETMl0v4Ij8P8jwY9-2" value="" style="verticalLabelPosition=bottom;html=1;verticalAlign=top;align=center;strokeColor=none;fillColor=#00BEF2;shape=mxgraph.azure.cloud_services_configuration_file;pointerEvents=1;" vertex="1" parent="1">
          <mxGeometry x="147.5" y="280" width="47.5" height="50" as="geometry" />
        </mxCell>
        <mxCell id="AzFJETMl0v4Ij8P8jwY9-5" value="" style="verticalLabelPosition=bottom;html=1;verticalAlign=top;align=center;strokeColor=none;fillColor=#00BEF2;shape=mxgraph.azure.automation;pointerEvents=1;" vertex="1" parent="1">
          <mxGeometry x="210" y="180" width="50" height="45" as="geometry" />
        </mxCell>
        <mxCell id="AzFJETMl0v4Ij8P8jwY9-6" value="" style="verticalLabelPosition=bottom;html=1;verticalAlign=top;align=center;strokeColor=none;fillColor=#00BEF2;shape=mxgraph.azure.automation;pointerEvents=1;" vertex="1" parent="1">
          <mxGeometry x="260" y="270" width="50" height="45" as="geometry" />
        </mxCell>
      </root>
    </mxGraphModel>
  </diagram>
</mxfile>
